<svg width="15" height="15" viewBox="0 0 15 15" fill="none" xmlns="http://www.w3.org/2000/svg">
<g clip-path="url(#clip0_9_9)">
<path d="M7.76835 1.31172L9.35835 4.52172C9.39452 4.6032 9.4514 4.67377 9.52334 4.72641C9.59528 4.77904 9.67976 4.81191 9.76835 4.82172L13.2784 5.34172C13.38 5.35478 13.4758 5.39649 13.5546 5.46198C13.6334 5.52746 13.692 5.61402 13.7234 5.71153C13.7549 5.80905 13.758 5.91351 13.7323 6.0127C13.7066 6.1119 13.6532 6.20173 13.5784 6.27172L11.0484 8.78172C10.9838 8.84205 10.9353 8.91756 10.9074 9.0014C10.8794 9.08523 10.8729 9.17472 10.8884 9.26172L11.4984 12.7917C11.516 12.8932 11.5049 12.9975 11.4661 13.0929C11.4274 13.1883 11.3627 13.2709 11.2793 13.3314C11.196 13.3918 11.0973 13.4276 10.9946 13.4347C10.8919 13.4419 10.7893 13.42 10.6984 13.3717L7.53835 11.7017C7.45744 11.662 7.36849 11.6413 7.27835 11.6413C7.18821 11.6413 7.09927 11.662 7.01835 11.7017L3.85835 13.3717C3.76744 13.42 3.66479 13.4419 3.56208 13.4347C3.45937 13.4276 3.36072 13.3918 3.27737 13.3314C3.19401 13.2709 3.12929 13.1883 3.09057 13.0929C3.05186 12.9975 3.04069 12.8932 3.05835 12.7917L3.66835 9.22172C3.68381 9.13472 3.67727 9.04523 3.64933 8.9614C3.62139 8.87756 3.57292 8.80205 3.50835 8.74172L0.948354 6.27172C0.872616 6.19982 0.819353 6.10749 0.795017 6.00594C0.770682 5.90438 0.776317 5.79794 0.81124 5.69952C0.846164 5.6011 0.908878 5.51492 0.991784 5.45141C1.07469 5.38791 1.17423 5.3498 1.27835 5.34172L4.78835 4.82172C4.87695 4.81191 4.96143 4.77904 5.03337 4.72641C5.10531 4.67377 5.16219 4.6032 5.19835 4.52172L6.78835 1.31172C6.83165 1.21823 6.90079 1.13908 6.98762 1.0836C7.07444 1.02813 7.17532 0.998657 7.27835 0.998657C7.38139 0.998657 7.48227 1.02813 7.56909 1.0836C7.65591 1.13908 7.72505 1.21823 7.76835 1.31172Z" stroke="black" stroke-linecap="round" stroke-linejoin="round"/>
</g>
<defs>
<clipPath id="clip0_9_9">
<rect width="14" height="14" fill="white" transform="translate(0.27832 0.22168)"/>
</clipPath>
</defs>
</svg>
