<svg width="15" height="15" viewBox="0 0 15 15" fill="none" xmlns="http://www.w3.org/2000/svg">
<g clip-path="url(#clip0_9_17)">
<path d="M10.5284 0.72168C10.4246 0.722287 10.3232 0.752792 10.2363 0.809544C10.1494 0.866297 10.0807 0.946891 10.0384 1.04168L8.44837 4.40168C8.41275 4.48445 8.35623 4.55654 8.28435 4.61088C8.21248 4.66522 8.12772 4.69996 8.03837 4.71168L4.49837 5.22168C4.39079 5.23899 4.29027 5.28625 4.20831 5.35805C4.12635 5.42985 4.06627 5.52329 4.03496 5.62766C4.00365 5.73202 4.00237 5.8431 4.03127 5.94816C4.06017 6.05322 4.11809 6.14801 4.19837 6.22168L6.75837 8.85168C6.82248 8.91657 6.87038 8.99566 6.89818 9.08254C6.92598 9.16942 6.9329 9.26163 6.91837 9.35168L6.27837 13.0517C6.26019 13.1537 6.27069 13.2588 6.3087 13.3553C6.34672 13.4517 6.41076 13.5357 6.49369 13.5979C6.57662 13.6601 6.67519 13.6981 6.77842 13.7076C6.88165 13.7171 6.98549 13.6977 7.07837 13.6517L10.2784 11.9117C10.3585 11.8686 10.4475 11.8447 10.5384 11.8417L10.5284 0.72168Z" stroke="black" stroke-linecap="round" stroke-linejoin="round"/>
</g>
<defs>
<clipPath id="clip0_9_17">
<rect width="14" height="14" fill="white" transform="translate(0.27832 0.22168)"/>
</clipPath>
</defs>
</svg>
